<?xml version="1.0" standalone="no"?><!DOCTYPE svg PUBLIC "-//W3C//DTD SVG 1.1//EN" "http://www.w3.org/Graphics/SVG/1.1/DTD/svg11.dtd"><svg t="1557036068997" class="icon" style="" viewBox="0 0 1024 1024" version="1.1" xmlns="http://www.w3.org/2000/svg" p-id="1997" xmlns:xlink="http://www.w3.org/1999/xlink" width="128" height="128"><defs><style type="text/css"></style></defs><path d="M711.111111 910.222222H312.888889v28.444445a28.444444 28.444444 0 0 1-56.888889 0v-31.288889A142.279111 142.279111 0 0 1 142.222222 768V227.555556a142.222222 142.222222 0 0 1 142.222222-142.222223h455.111112a142.222222 142.222222 0 0 1 142.222222 142.222223v540.444444a142.279111 142.279111 0 0 1-113.777778 139.377778V938.666667a28.444444 28.444444 0 0 1-56.888889 0v-28.444445zM284.444444 142.222222a85.333333 85.333333 0 0 0-85.333333 85.333334v227.555555h625.777778V227.555556a85.333333 85.333333 0 0 0-85.333333-85.333334H284.444444z m-199.111111 199.111111a28.444444 28.444444 0 0 1 28.444445 28.444445v113.777778a28.444444 28.444444 0 0 1-56.888889 0v-113.777778a28.444444 28.444444 0 0 1 28.444444-28.444445z m853.333334 0a28.444444 28.444444 0 0 1 28.444444 28.444445v113.777778a28.444444 28.444444 0 0 1-56.888889 0v-113.777778a28.444444 28.444444 0 0 1 28.444445-28.444445zM284.444444 682.666667a56.888889 56.888889 0 1 0 0-113.777778 56.888889 56.888889 0 0 0 0 113.777778z m455.111112 0a56.888889 56.888889 0 1 0 0-113.777778 56.888889 56.888889 0 0 0 0 113.777778z" fill="#fb6f32" p-id="1998"></path></svg>