<?xml version="1.0" standalone="no"?><!DOCTYPE svg PUBLIC "-//W3C//DTD SVG 1.1//EN" "http://www.w3.org/Graphics/SVG/1.1/DTD/svg11.dtd"><svg t="1557207886290" class="icon" style="" viewBox="0 0 1210 1024" version="1.1" xmlns="http://www.w3.org/2000/svg" p-id="2306" xmlns:xlink="http://www.w3.org/1999/xlink" width="151.25" height="128"><defs><style type="text/css"></style></defs><path d="M884.363636 744.727273H325.818182c-130.327273 0-232.727273-102.4-232.727273-232.727273 0-111.709091 79.127273-204.8 186.181818-228.072727v-93.090909c-158.254545 23.272727-279.272727 158.254545-279.272727 321.163636v4.654545C0 693.527273 144.290909 837.818182 321.163636 837.818182H884.363636v-93.090909z" fill="#73BE66" p-id="2307"></path><path d="M889.018182 186.181818H372.363636v93.090909h512c130.327273 0 232.727273 102.4 232.727273 232.727273 0 93.090909-55.854545 176.872727-139.636364 214.109091v102.4c134.981818-37.236364 232.727273-162.909091 232.727273-307.2V512c0-181.527273-144.290909-325.818182-321.163636-325.818182z" fill="#73BE66" p-id="2308"></path><path d="M628.363636 0L698.181818 69.818182 428.218182 265.309091 372.363636 186.181818l256-186.181818zM828.509091 758.690909L884.363636 837.818182l-256 186.181818-69.818181-69.818182 269.963636-195.490909z" fill="#73BE66" p-id="2309"></path></svg>