<?xml version="1.0" standalone="no"?><!DOCTYPE svg PUBLIC "-//W3C//DTD SVG 1.1//EN" "http://www.w3.org/Graphics/SVG/1.1/DTD/svg11.dtd"><svg t="1548651213318" class="icon" style="" viewBox="0 0 1024 1024" version="1.1" xmlns="http://www.w3.org/2000/svg" p-id="7290" xmlns:xlink="http://www.w3.org/1999/xlink" width="48" height="48"><defs><style type="text/css"></style></defs><path d="M510.581865 1011.899091C233.319718 1011.899091 7.774863 786.354236 7.774863 509.09209 7.774863 231.829943 233.355633 6.285088 510.581865 6.285088 787.808096 6.285088 1013.388867 231.829943 1013.388867 509.09209 1013.388867 786.354236 787.844012 1011.899091 510.581865 1011.899091L510.581865 1011.899091ZM510.581865 78.114659C272.933727 78.114659 79.604435 271.443951 79.604435 509.09209 79.604435 746.740227 272.933727 940.069519 510.581865 940.069519 748.230002 940.069519 941.559295 746.740227 941.559295 509.09209 941.559295 271.443951 748.230002 78.114659 510.581865 78.114659L510.581865 78.114659ZM338.927146 501.460197C309.153788 501.460197 285.054967 477.361376 285.054967 447.588018L285.054967 375.758447C285.054967 345.985089 309.153788 321.886268 338.927146 321.886268 368.700503 321.886268 392.799324 345.985089 392.799324 375.758447L392.799324 447.588018C392.799324 477.325462 368.664589 501.460197 338.927146 501.460197L338.927146 501.460197ZM684.606959 501.460197C654.869517 501.460197 630.73478 477.361376 630.73478 447.588018L630.73478 375.758447C630.73478 345.985089 654.869517 321.886268 684.606959 321.886268 714.344402 321.886268 738.479139 345.985089 738.479139 375.758447L738.479139 447.588018C738.479139 477.325462 714.344402 501.460197 684.606959 501.460197L684.606959 501.460197ZM621.032177 758.81433C613.419365 758.81433 605.753802 756.327231 599.343013 751.208251 579.951273 735.721121 545.938849 726.100449 510.581865 726.100449 475.224881 726.100449 441.213578 735.721121 421.821838 751.208251 406.806092 763.198177 384.914907 760.748116 372.923858 745.732369 360.932809 730.717743 363.383992 708.825436 378.398618 696.834387 410.482867 671.211433 458.662552 656.515551 510.582988 656.515551 562.503421 656.515551 610.683107 671.211433 642.767356 696.834387 657.783104 708.826559 660.233166 730.717743 648.243238 745.732369 641.371169 754.336205 631.248812 758.81433 621.032177 758.81433L621.032177 758.81433Z" p-id="7291" fill="#1296db"></path></svg>